PathFileType  4	(X/Y/Z) H:\Shared drives\HIT\Data\HapticPilot\Subject1\Edited\Files_W_HJCs
DataRate	CameraRate	NumFrames	NumMarkers	Units	OrigDataRate	OrigDataStartFrame	OrigNumFrames
   50.0		   50.0		    4		     56		 mm	   50.0	      57	    227
Frame#	Time	r_knee			r_shank_antsup			r_ankle			r_calc			r_5meta			r_toe			L_knee			L_shank_antsup			L_ankle			L_calc			L_5meta			L_toe			r_mknee			r_mankle			L_mknee			L_mankle			r_sh2			r_sh3			r_sh4			L_sh2			L_sh3			r_thigh1			r_thigh2			r_thigh3			r_thigh4			r_thigh5			L_thigh1			L_thigh2			L_thigh3			L_thigh4			r.ASIS			r.PSIS			L.ASIS			L.PSIS			C7			R_Shoulder			L_Shoulder			Sternum			R_HJC			L_HJC			R_HJC_reg			L_HJC_reg			midPSIS			midASIS			midHJC			midPelvis			R_KJC			L_KJC			R_AJC			L_AJC			R_AJC_proj			R_5meta_proj			R_toe_proj			L_AJC_proj			L_5meta_proj			L_toe_proj			
		X1	Y1	Z1	X2	Y2	Z2	X3	Y3	Z3	X4	Y4	Z4	X5	Y5	Z5	X6	Y6	Z6	X7	Y7	Z7	X8	Y8	Z8	X9	Y9	Z9	X10	Y10	Z10	X11	Y11	Z11	X12	Y12	Z12	X13	Y13	Z13	X14	Y14	Z14	X15	Y15	Z15	X16	Y16	Z16	X17	Y17	Z17	X18	Y18	Z18	X19	Y19	Z19	X20	Y20	Z20	X21	Y21	Z21	X22	Y22	Z22	X23	Y23	Z23	X24	Y24	Z24	X25	Y25	Z25	X26	Y26	Z26	X27	Y27	Z27	X28	Y28	Z28	X29	Y29	Z29	X30	Y30	Z30	X31	Y31	Z31	X32	Y32	Z32	X33	Y33	Z33	X34	Y34	Z34	X35	Y35	Z35	X36	Y36	Z36	X37	Y37	Z37	X38	Y38	Z38	X39	Y39	Z39	X40	Y40	Z40	X41	Y41	Z41	X42	Y42	Z42	X43	Y43	Z43	X44	Y44	Z44	X45	Y45	Z45	X46	Y46	Z46	X47	Y47	Z47	X48	Y48	Z48	X49	Y49	Z49	X50	Y50	Z50	X51	Y51	Z51	X52	Y52	Z52	X53	Y53	Z53	X54	Y54	Z54	X55	Y55	Z55	X56	Y56	Z56	

57	1.12000	773.550	578.813	-409.211	787.822	491.857	-404.389	735.058	114.256	-409.014	646.453	71.213	-452.105	847.127	39.402	-382.290	886.076	73.618	-445.128	767.444	573.405	-732.438	792.286	456.011	-733.686	705.354	113.345	-732.183	629.732	73.401	-681.387	821.016	42.466	-777.860	868.096	71.029	-721.439	771.041	558.034	-535.186	746.988	120.779	-505.209	785.281	562.793	-610.150	736.778	120.664	-642.355	784.447	371.694	-401.237	712.869	491.623	-392.330	702.436	375.716	-385.777	704.667	476.040	-752.401	692.426	354.113	-753.780	842.050	898.777	-392.844	841.081	783.787	-396.102	795.425	750.643	-383.471	729.005	892.795	-381.490	734.210	775.813	-393.491	855.530	839.993	-752.446	857.037	701.882	-743.411	740.207	838.655	-771.511	744.854	704.325	-752.268	865.072	1095.133	-447.065	676.020	1126.608	-539.541	874.231	1096.330	-705.268	684.216	1125.424	-622.223	722.929	1608.741	-589.828	765.752	1582.822	-424.571	788.704	1574.405	-766.014	863.777	1535.365	-582.305	796.575	1006.307	-459.146	803.710	1007.602	-695.399	791.138	1018.930	-489.824	807.956	1016.500	-659.499	680.118	1126.016	-580.882	869.651	1095.731	-576.166	800.143	1006.954	-577.273	774.885	1110.873	-578.524	772.296	568.424	-472.198	776.363	568.099	-671.294	741.023	117.517	-457.111	721.066	117.005	-687.269	741.023	0.000	-457.111	847.127	0.000	-382.290	886.076	0.000	-445.128	721.066	0.000	-687.269	821.016	0.000	-777.860	868.096	0.000	-721.439
58	1.14000	773.479	578.810	-409.229	787.753	491.822	-404.460	735.047	114.239	-409.026	646.453	71.216	-452.107	847.133	39.398	-382.311	886.082	73.621	-445.123	767.392	573.370	-732.467	792.278	455.973	-733.710	705.309	113.330	-732.198	629.712	73.409	-681.383	820.963	42.442	-777.865	868.083	71.037	-721.447	770.939	558.006	-535.253	746.962	120.746	-505.235	785.120	562.737	-610.170	736.830	120.669	-642.385	784.433	371.679	-401.311	712.815	491.615	-392.374	702.449	375.716	-385.774	704.633	476.017	-752.432	692.373	354.100	-753.819	842.009	898.691	-392.970	840.912	783.813	-396.125	795.345	750.652	-383.508	729.008	892.849	-381.467	734.192	775.822	-393.537	855.526	839.960	-752.461	856.988	701.805	-743.396	740.238	838.601	-771.527	744.821	704.348	-752.392	865.044	1095.110	-447.050	676.047	1126.615	-539.553	874.190	1096.318	-705.286	684.192	1125.444	-622.263	722.947	1608.700	-589.718	765.667	1582.852	-424.564	788.649	1574.443	-765.921	863.672	1535.273	-582.279	796.538	1006.296	-459.164	803.676	1007.599	-695.417	791.150	1018.900	-489.778	807.863	1016.497	-659.485	680.120	1126.029	-580.908	869.617	1095.714	-576.168	800.107	1006.948	-577.290	774.868	1110.872	-578.538	772.209	568.408	-472.241	776.256	568.053	-671.318	741.005	117.492	-457.131	721.069	116.999	-687.292	741.005	0.000	-457.131	847.133	0.000	-382.311	886.082	0.000	-445.123	721.069	0.000	-687.292	820.963	0.000	-777.865	868.083	0.000	-721.447
59	1.16000	773.458	578.796	-409.239	787.731	491.829	-404.472	735.049	114.246	-409.022	646.462	71.261	-452.084	847.119	39.400	-382.318	886.108	73.637	-445.120	767.388	573.384	-732.454	792.273	455.974	-733.707	705.290	113.363	-732.161	629.700	73.423	-681.362	820.989	42.495	-777.880	868.068	71.039	-721.441	770.956	558.033	-535.257	746.955	120.781	-505.259	785.174	562.788	-610.160	736.807	120.670	-642.334	784.384	371.676	-401.281	712.773	491.588	-392.411	702.435	375.688	-385.825	704.623	476.039	-752.474	692.388	354.098	-753.770	841.993	898.681	-393.029	840.812	783.740	-396.184	795.350	750.611	-383.545	728.949	892.785	-381.554	734.177	775.768	-393.587	855.467	839.952	-752.498	856.973	701.836	-743.420	740.254	838.660	-771.603	744.735	704.325	-752.395	864.974	1095.105	-447.085	675.997	1126.685	-539.571	874.194	1096.337	-705.310	684.201	1125.510	-622.248	722.998	1608.758	-589.675	765.680	1582.870	-424.469	788.576	1574.509	-765.841	863.609	1535.199	-582.199	796.465	1006.311	-459.190	803.628	1007.643	-695.443	791.028	1018.938	-489.868	807.864	1016.527	-659.557	680.099	1126.097	-580.910	869.584	1095.721	-576.197	800.046	1006.977	-577.317	774.841	1110.909	-578.553	772.207	568.414	-472.248	776.281	568.086	-671.307	741.002	117.514	-457.140	721.049	117.016	-687.248	741.002	0.000	-457.140	847.119	0.000	-382.318	886.108	0.000	-445.120	721.049	0.000	-687.248	820.989	0.000	-777.880	868.068	0.000	-721.441
60	1.18000	773.481	578.806	-409.257	787.731	491.843	-404.478	735.060	114.269	-409.001	646.439	71.350	-452.026	847.134	39.402	-382.305	886.094	73.634	-445.081	767.416	573.432	-732.497	792.287	455.998	-733.708	705.284	113.385	-732.171	629.723	73.430	-681.296	820.996	42.546	-777.843	868.086	71.101	-721.397	770.952	558.015	-535.260	747.011	120.789	-505.246	785.130	562.752	-610.166	736.750	120.713	-642.326	784.371	371.698	-401.308	712.790	491.577	-392.412	702.439	375.691	-385.791	704.663	476.036	-752.470	692.404	354.132	-753.830	841.946	898.708	-393.046	840.788	783.771	-396.157	795.306	750.635	-383.515	728.931	892.821	-381.558	734.148	775.790	-393.543	855.522	839.960	-752.473	857.026	701.884	-743.419	740.296	838.664	-771.620	744.796	704.352	-752.387	864.928	1095.096	-447.111	675.935	1126.730	-539.615	874.227	1096.339	-705.273	684.119	1125.660	-622.347	723.028	1608.814	-589.603	765.698	1582.860	-424.364	788.476	1574.534	-765.727	863.550	1535.087	-582.167	796.338	1006.329	-459.234	803.581	1007.697	-695.484	791.056	1018.824	-489.956	807.838	1016.630	-659.614	680.027	1126.195	-580.981	869.578	1095.718	-576.192	799.960	1007.013	-577.359	774.802	1110.956	-578.587	772.216	568.410	-472.259	776.273	568.092	-671.332	741.035	117.529	-457.123	721.017	117.049	-687.248	741.035	0.000	-457.123	847.134	0.000	-382.305	886.094	0.000	-445.081	721.017	0.000	-687.248	820.996	0.000	-777.843	868.086	0.000	-721.397
